<svg version="1.1" id="Layer_1" xmlns="http://www.w3.org/2000/svg" xmlns:xlink="http://www.w3.org/1999/xlink" x="0px" y="0px"
	 width="100%" viewBox="0 0 279 260" enable-background="new 0 0 279 260" xml:space="preserve">
<path fill="#048AF6" opacity="1.000000" stroke="none" 
	d="
M112.694366,223.826279 
	C126.233116,226.235474 139.823395,226.181870 153.448166,224.713303 
	C154.424988,224.608002 155.615082,224.404144 156.389832,224.826324 
	C163.179871,228.526505 169.897980,232.358673 176.637405,236.151703 
	C176.550156,236.650696 176.462906,237.149704 176.375656,237.648712 
	C172.312714,238.850143 168.298126,240.258911 164.179016,241.219452 
	C136.692719,247.628952 109.899452,246.663040 84.739685,232.534256 
	C79.876877,229.803497 76.152161,228.620056 70.390717,230.581085 
	C62.351250,233.317474 54.861385,229.962402 49.485390,223.408371 
	C44.060169,216.794342 43.129551,209.320786 47.407887,201.075577 
	C47.888191,200.512909 47.974640,200.345840 48.030598,200.162994 
	C48.030598,200.162994 48.002296,200.055786 48.503517,200.039673 
	C53.429981,199.572128 57.845783,198.920883 62.282448,198.711334 
	C71.165886,198.291779 80.407394,197.143509 85.668594,207.024277 
	C85.841537,207.964050 86.014488,208.903809 86.309814,210.463776 
	C86.739151,211.353607 87.046097,211.623245 87.353058,211.892883 
	C87.801224,212.149002 88.249382,212.405121 88.969704,213.165497 
	C89.952606,213.995804 90.663345,214.321884 91.374084,214.647949 
	C91.374084,214.647964 91.189735,214.732361 91.386986,214.907593 
	C92.229271,215.346558 92.874298,215.610291 93.519325,215.874023 
	C95.839012,217.005173 98.158707,218.136307 100.794579,219.628540 
	C101.110756,219.989624 101.515755,220.219070 101.515755,220.219070 
	C101.515755,220.219070 101.982414,220.173950 101.982414,220.173950 
	C104.171776,220.882416 106.361130,221.590881 109.117752,222.752014 
	C110.688133,223.411896 111.691254,223.619080 112.694366,223.826279 
z"/>
<path fill="#F88308" opacity="1.000000" stroke="none" 
	d="
M240.061447,74.134071 
	C239.995697,74.315125 239.929962,74.496170 239.340240,74.882294 
	C237.993088,74.744133 236.485626,74.455658 236.453079,74.049126 
	C236.144348,70.191574 233.233521,69.745552 230.444473,69.410904 
	C225.379501,68.803162 220.275436,68.526009 215.205780,67.951324 
	C210.066269,67.368729 204.899704,66.661652 204.035324,60.000778 
	C202.382690,58.057735 201.030869,55.704559 199.029663,54.236740 
	C183.450256,42.809658 165.996460,36.118595 146.386536,33.782455 
	C146.012146,33.439213 146.019882,33.032753 146.449509,33.021862 
	C152.765198,32.147369 158.677429,31.422886 164.519058,30.323236 
	C165.996628,30.045097 167.248856,28.569960 168.604630,27.644863 
	C167.110886,26.476139 165.729767,24.515272 164.102753,24.283985 
	C158.757736,23.524162 155.370346,20.582090 153.006668,16.040606 
	C174.460983,19.173771 194.419189,26.087530 211.686127,39.592484 
	C214.238617,41.588856 216.329422,42.349964 219.760406,41.464188 
	C227.675873,39.420681 234.539856,41.865871 240.057129,48.761147 
	C240.420654,49.561806 240.620285,49.802483 240.855835,50.013363 
	C240.855835,50.013363 240.996552,50.048985 241.038055,50.255230 
	C241.176254,50.637814 241.303619,50.788162 241.461670,50.912521 
	C241.591171,51.096172 241.720688,51.279827 241.959457,51.933502 
	C242.146515,52.584805 242.254898,52.745419 242.393906,52.885372 
	C242.527481,53.109676 242.661057,53.333981 242.884338,54.155495 
	C243.148087,55.136456 243.322159,55.520214 243.496216,55.903976 
	C243.678574,56.675961 243.860931,57.447945 243.813980,58.914330 
	C243.669540,61.399433 243.754410,63.190144 243.839264,64.980850 
	C243.738800,65.854874 243.638336,66.728889 243.277985,68.029655 
	C243.018082,68.456398 242.956894,68.671379 242.956894,68.671379 
	C242.919098,68.926842 242.881287,69.182304 242.541931,69.886810 
	C242.116898,70.508377 242.032486,70.698273 241.987137,70.905525 
	C241.956741,71.102379 241.926331,71.299232 241.477753,71.872284 
	C240.726883,72.877007 240.394165,73.505539 240.061447,74.134071 
z"/>
<path fill="#955CA0" opacity="1.000000" stroke="none" 
	d="
M76.607101,72.871483 
	C82.125633,68.589867 87.644165,64.308250 93.798134,59.986229 
	C94.629951,59.961323 94.826332,59.976826 95.005249,60.352928 
	C94.589706,62.431995 94.191643,64.150467 93.510963,67.088936 
	C97.878738,66.315483 101.464317,65.342857 105.098114,65.104195 
	C113.878319,64.527527 122.846123,65.231537 131.439072,63.719128 
	C147.564087,60.881020 161.279297,67.341240 175.497696,72.821922 
	C181.772141,75.240486 188.531677,76.400566 195.070999,78.131989 
	C195.278427,77.606422 195.485870,77.080849 195.693298,76.555283 
	C193.802155,73.623428 191.911026,70.691566 190.019882,67.759712 
	C195.257080,73.299522 200.494293,78.839333 205.491486,84.847740 
	C199.752609,87.543945 194.290024,89.107056 189.093506,84.569824 
	C188.734100,84.256027 188.213181,84.123497 187.761414,83.919868 
	C184.675339,82.528847 182.976898,83.347466 183.008667,86.911789 
	C165.231812,70.807640 144.538467,65.090469 121.067650,69.838554 
	C116.870232,70.687675 112.882072,72.571175 108.137558,73.772110 
	C100.935020,70.089180 94.373184,72.318329 88.135193,74.161606 
	C83.788368,75.446060 80.197060,75.668602 76.607101,72.871483 
z"/>
<path fill="#DE5B39" opacity="1.000000" stroke="none" 
	d="
M40.778187,152.011368 
	C41.082638,152.793304 41.387089,153.575256 41.338379,154.720779 
	C39.946266,156.214981 38.880108,157.321991 37.874306,158.481369 
	C36.076431,160.553802 34.618298,163.950592 32.469330,164.454834 
	C28.980268,165.273514 28.045900,167.365753 27.031075,169.972473 
	C19.296736,153.353317 17.294313,135.782501 18.420145,117.709694 
	C18.594765,114.906563 19.066034,112.121910 19.646971,109.387550 
	C19.998032,111.337845 20.102242,113.229294 20.193624,114.887901 
	C26.206985,112.747612 31.261827,106.716019 38.304527,111.960724 
	C38.290970,112.507790 38.277412,113.054863 37.895363,113.894722 
	C37.581753,114.777451 37.636642,115.367386 37.691532,115.957321 
	C38.434765,126.688774 39.177994,137.420227 39.589634,148.426895 
	C38.469948,146.818939 37.552757,144.977768 36.923378,143.042969 
	C35.927818,139.982468 35.125107,136.859238 34.240784,133.762543 
	C29.932825,142.865189 33.009178,149.927704 40.778187,152.011368 
z"/>
<path fill="#0687F5" opacity="1.000000" stroke="none" 
	d="
M201.060608,212.971161 
	C201.588760,213.206161 202.116898,213.441162 202.961395,214.213486 
	C204.039444,215.119995 204.801132,215.489182 205.562820,215.858368 
	C214.366119,221.445663 223.169434,227.032944 232.935211,233.231094 
	C225.965393,237.247528 219.834885,240.990845 213.460464,244.258301 
	C212.321686,244.842010 209.934067,243.825958 208.528351,242.919861 
	C197.435867,235.769562 186.441742,228.466629 175.056854,220.802887 
	C174.515610,220.225021 174.309738,220.094650 174.078720,220.003998 
	C173.164474,219.496979 172.250229,218.989960 171.309204,217.939453 
	C171.846024,217.157288 172.493011,216.602859 172.960983,216.726425 
	C182.856018,219.339386 191.598816,213.455048 201.060608,212.971161 
z"/>
<path fill="#FA7F08" opacity="1.000000" stroke="none" 
	d="
M152.627716,15.870144 
	C155.370346,20.582090 158.757736,23.524162 164.102753,24.283985 
	C165.729767,24.515272 167.110886,26.476139 168.604630,27.644863 
	C167.248856,28.569960 165.996628,30.045097 164.519058,30.323236 
	C158.677429,31.422886 152.765198,32.147369 146.267761,33.124622 
	C145.421799,33.391090 145.210983,33.571690 145.023972,33.780064 
	C144.557068,33.813705 144.090179,33.847343 143.120087,33.624420 
	C142.382172,33.174370 142.130600,33.006031 141.516495,32.679939 
	C136.846634,32.604847 132.522461,32.712666 127.991089,32.942047 
	C127.512772,33.237179 127.267525,33.441765 127.048149,33.677361 
	C126.293266,33.821705 125.538383,33.966049 124.428642,33.666710 
	C124.792381,29.779449 125.926758,25.951649 120.844025,25.060217 
	C115.676819,24.153967 111.275375,22.202093 108.008553,18.005711 
	C108.008553,18.005711 108.202133,17.794731 108.734467,17.865463 
	C110.509491,17.654772 111.752197,17.373348 112.994896,17.091927 
	C125.997658,14.319844 139.089035,14.045972 152.627716,15.870144 
z"/>
<path fill="#F5770D" opacity="1.000000" stroke="none" 
	d="
M107.606400,17.992535 
	C111.275375,22.202093 115.676819,24.153967 120.844025,25.060217 
	C125.926758,25.951649 124.792381,29.779449 124.045761,33.607811 
	C121.959785,34.363155 119.901848,34.733711 117.701752,34.879990 
	C118.673309,34.180050 119.787025,33.704388 120.900734,33.228729 
	C120.807793,32.813957 120.714844,32.399185 120.621902,31.984413 
	C118.404533,32.289200 116.187164,32.593983 113.969803,32.898769 
	C113.986267,33.364807 114.002739,33.830849 114.019203,34.296886 
	C115.036324,34.549076 116.053444,34.801266 117.070564,35.053455 
	C106.320099,39.011944 95.569626,42.970432 84.517136,46.642075 
	C84.506882,44.279911 85.805031,41.374619 84.904465,40.282646 
	C82.036438,36.805046 78.350426,34.002045 74.980431,30.938427 
	C85.721703,26.618738 96.462982,22.299049 107.606400,17.992535 
z"/>
<path fill="#9D5F9E" opacity="1.000000" stroke="none" 
	d="
M189.806885,67.506561 
	C191.911026,70.691566 193.802155,73.623428 195.693298,76.555283 
	C195.485870,77.080849 195.278427,77.606422 195.070999,78.131989 
	C188.531677,76.400566 181.772141,75.240486 175.497696,72.821922 
	C161.279297,67.341240 147.564087,60.881020 131.439072,63.719128 
	C122.846123,65.231537 113.878319,64.527527 105.098114,65.104195 
	C101.464317,65.342857 97.878738,66.315483 93.510963,67.088936 
	C94.191643,64.150467 94.589706,62.431995 95.422691,60.368309 
	C103.238274,60.058407 110.632072,60.384319 117.996117,60.051617 
	C126.229736,59.679626 134.427856,58.306728 142.657547,58.132782 
	C148.893234,58.000984 155.170242,58.929916 161.396835,59.659897 
	C164.268768,59.996590 166.707153,60.084248 168.364410,56.999474 
	C170.379150,57.042999 172.061157,57.062046 173.743164,57.081093 
	C179.026733,60.471867 184.310303,63.862633 189.806885,67.506561 
z"/>
<path fill="#A3609B" opacity="1.000000" stroke="none" 
	d="
M168.031677,56.974991 
	C166.707153,60.084248 164.268768,59.996590 161.396835,59.659897 
	C155.170242,58.929916 148.893234,58.000984 142.657547,58.132782 
	C134.427856,58.306728 126.229736,59.679626 117.996117,60.051617 
	C110.632072,60.384319 103.238274,60.058407 95.440155,60.007710 
	C94.826332,59.976826 94.629951,59.961323 94.139091,59.927040 
	C108.311615,50.760674 124.345955,48.025047 141.094742,48.766277 
	C146.543991,49.007439 151.947372,50.284988 157.908508,51.514015 
	C160.327301,53.274868 162.127808,54.753292 164.122910,55.890205 
	C165.261993,56.539307 166.718246,56.631847 168.031677,56.974991 
z"/>
<path fill="#DB593E" opacity="1.000000" stroke="none" 
	d="
M27.056320,170.335541 
	C28.045900,167.365753 28.980268,165.273514 32.469330,164.454834 
	C34.618298,163.950592 36.076431,160.553802 37.874306,158.481369 
	C38.880108,157.321991 39.946266,156.214981 41.329979,155.039551 
	C45.483528,162.879471 49.292328,170.764191 53.297295,179.055023 
	C48.367439,182.231720 43.237827,185.537140 37.125099,189.476074 
	C33.708084,183.087585 30.394827,176.893097 27.056320,170.335541 
z"/>
<path fill="#1F62E2" opacity="1.000000" stroke="none" 
	d="
M132.984238,205.244598 
	C123.201820,203.210968 113.419411,201.177353 103.251831,198.603241 
	C101.549049,193.273361 105.336945,192.862152 108.232933,192.325638 
	C112.404465,191.552826 116.770576,191.749893 120.891556,190.817032 
	C123.103859,190.316223 124.977493,188.319351 127.472031,186.998169 
	C134.950562,187.331009 141.961029,187.663223 148.879517,188.329651 
	C147.541077,189.621399 146.307449,190.596222 145.045792,191.533264 
	C141.117035,194.451248 137.018173,197.173859 133.358902,200.396469 
	C132.487030,201.164322 133.070282,203.584442 132.984238,205.244598 
z"/>
<path fill="#F77212" opacity="1.000000" stroke="none" 
	d="
M74.976791,30.953285 
	C78.350426,34.002045 82.036438,36.805046 84.904465,40.282646 
	C85.805031,41.374619 84.506882,44.279911 84.169609,46.716042 
	C84.124107,47.076855 84.063255,47.093403 83.891632,47.181431 
	C83.473724,47.423397 83.244293,47.599323 83.031715,47.797234 
	C78.780128,50.686913 74.528542,53.576591 69.873726,56.847107 
	C69.253662,57.403625 69.085281,57.617462 68.965363,57.869442 
	C68.965363,57.869442 68.954620,57.950027 68.719437,57.910439 
	C68.484245,57.870853 68.092659,57.814571 67.933472,57.528786 
	C63.514969,53.834255 59.255650,50.425507 54.983551,46.705078 
	C54.952053,46.186268 54.933338,45.979145 54.914619,45.772026 
	C60.864124,41.187550 66.813629,36.603073 73.356110,31.849232 
	C74.281364,31.442598 74.613632,31.205332 74.945908,30.968067 
	C74.945908,30.968067 74.973152,30.968142 74.976791,30.953285 
z"/>
<path fill="#E45F33" opacity="1.000000" stroke="none" 
	d="
M38.487648,111.590698 
	C31.261827,106.716019 26.206985,112.747612 20.193624,114.887901 
	C20.102242,113.229294 19.998032,111.337845 19.845642,109.018646 
	C21.702906,101.250977 23.608349,93.911064 25.840721,86.690643 
	C27.816490,87.540245 29.411280,88.702698 31.124617,88.916893 
	C35.706612,89.489723 40.339478,89.655663 44.952129,89.983284 
	C42.977077,95.442963 41.002029,100.902634 38.981583,107.014496 
	C38.934956,108.032387 38.933720,108.398094 38.932487,108.763794 
	C38.845249,109.582748 38.758007,110.401711 38.487648,111.590698 
z"/>
<path fill="#2D59D9" opacity="1.000000" stroke="none" 
	d="
M90.515770,167.857483 
	C98.243698,174.674606 106.980896,179.725403 116.651665,183.213760 
	C108.380424,183.348267 100.254837,183.267654 92.142273,182.899765 
	C87.362373,182.683029 85.526840,184.856216 85.882050,189.375565 
	C81.362877,185.416809 76.843704,181.458054 72.224388,176.848190 
	C76.403442,169.334488 83.416412,168.500732 90.515770,167.857483 
z"/>
<path fill="#245CDC" opacity="1.000000" stroke="none" 
	d="
M86.076195,189.635147 
	C85.526840,184.856216 87.362373,182.683029 92.142273,182.899765 
	C100.254837,183.267654 108.380424,183.348267 116.913788,183.425659 
	C117.327026,183.301682 117.323196,183.279114 117.432167,183.516022 
	C118.064400,183.667587 118.587662,183.582214 119.110924,183.496857 
	C121.499962,183.886688 123.889008,184.276505 126.640991,185.155273 
	C127.003944,186.095352 127.003944,186.546448 127.003944,186.997559 
	C124.977493,188.319351 123.103859,190.316223 120.891556,190.817032 
	C116.770576,191.749893 112.404465,191.552826 108.232933,192.325638 
	C105.336945,192.862152 101.549049,193.273361 102.940529,198.378433 
	C97.433029,195.760986 91.851677,192.827866 86.076195,189.635147 
z"/>
<path fill="#7159BD" opacity="1.000000" stroke="none" 
	d="
M116.866974,126.955109 
	C121.924301,110.985252 140.692810,107.560310 152.428574,120.934380 
	C147.756805,122.867462 142.806595,123.550323 138.842255,125.897972 
	C131.466324,130.265945 124.332367,129.640793 116.866974,126.955109 
z"/>
<path fill="#0C82EF" opacity="1.000000" stroke="none" 
	d="
M258.070038,203.870468 
	C262.737335,206.787903 267.404602,209.705353 273.163635,213.305206 
	C265.548279,217.602707 259.044647,221.407349 252.368378,224.880112 
	C251.474945,225.344864 249.549454,224.385666 248.375504,223.649506 
	C244.294632,221.090485 240.334229,218.339371 236.386887,215.141052 
	C241.598633,212.716080 246.702515,210.660187 251.923981,208.966919 
	C254.764511,208.045776 257.920471,207.882202 258.070038,203.870468 
z"/>
<path fill="#0B7EF1" opacity="1.000000" stroke="none" 
	d="
M200.871719,212.692841 
	C191.598816,213.455048 182.856018,219.339386 172.960983,216.726425 
	C172.493011,216.602859 171.846024,217.157288 171.149597,217.665207 
	C167.139145,215.473480 163.261520,213.012527 159.376923,209.943695 
	C165.631119,207.573563 171.925873,205.918839 178.132065,203.980591 
	C179.888123,203.432159 181.385468,202.055359 183.001465,201.058472 
	C188.895248,204.843826 194.789047,208.629166 200.871719,212.692841 
z"/>
<path fill="#0F7DF1" opacity="1.000000" stroke="none" 
	d="
M257.901123,203.611649 
	C257.920471,207.882202 254.764511,208.045776 251.923981,208.966919 
	C246.702515,210.660187 241.598633,212.716080 236.195160,214.868866 
	C231.077026,211.949463 226.209457,208.781998 221.200806,204.964767 
	C222.839157,203.009094 224.452835,201.010162 226.431458,200.536880 
	C231.006409,199.442535 235.743683,198.927200 240.444489,198.501419 
	C242.713120,198.295944 245.053696,198.773972 247.350983,199.036240 
	C248.787643,199.200256 250.204391,199.538940 251.630066,199.799240 
	C251.630066,199.799240 251.881561,199.765274 252.166351,200.074997 
	C252.816116,200.569229 253.181076,200.753738 253.546036,200.938248 
	C253.546036,200.938248 253.847961,200.942795 253.947479,201.240677 
	C254.371506,201.685303 254.696030,201.832062 255.020538,201.978806 
	C255.924423,202.436813 256.828308,202.894821 257.901123,203.611649 
z"/>
<path fill="#1A6BE9" opacity="1.000000" stroke="none" 
	d="
M133.430756,205.397812 
	C133.070282,203.584442 132.487030,201.164322 133.358902,200.396469 
	C137.018173,197.173859 141.117035,194.451248 145.045792,191.533264 
	C146.307449,190.596222 147.541077,189.621399 149.323364,188.327408 
	C155.573914,189.335175 161.288635,190.679398 166.913544,192.356567 
	C163.831177,194.817993 160.771667,196.859711 157.866959,199.101974 
	C155.476501,200.947235 153.269669,203.030380 150.807220,205.138611 
	C150.404114,205.450684 150.202515,205.658676 150.028214,205.893127 
	C144.644577,205.779083 139.260925,205.665054 133.430756,205.397812 
z"/>
<path fill="#2269E6" opacity="1.000000" stroke="none" 
	d="
M195.887924,188.369095 
	C191.756561,185.677002 187.625198,182.984909 183.278290,179.632690 
	C184.136856,177.658661 185.029297,175.454285 186.317810,175.191437 
	C190.879684,174.260864 195.575089,173.606674 200.223358,173.584808 
	C204.831863,173.563110 209.444550,174.431976 214.055405,174.910233 
	C217.692795,177.270569 221.330185,179.630920 224.749146,182.377594 
	C218.859055,182.971771 213.188095,183.201157 207.515549,183.380630 
	C202.976318,183.524261 198.080933,182.780319 195.887924,188.369095 
z"/>
<path fill="#F47C0D" opacity="1.000000" stroke="none" 
	d="
M203.883270,60.305359 
	C204.899704,66.661652 210.066269,67.368729 215.205780,67.951324 
	C220.275436,68.526009 225.379501,68.803162 230.444473,69.410904 
	C233.233521,69.745552 236.144348,70.191574 236.453079,74.049126 
	C236.485626,74.455658 237.993088,74.744133 239.092499,75.030960 
	C233.742416,81.311516 225.145020,83.507713 217.300568,80.611824 
	C208.893982,77.508415 204.082550,70.416122 203.883270,60.305359 
z"/>
<path fill="#EB632A" opacity="1.000000" stroke="none" 
	d="
M44.982185,89.976089 
	C40.339478,89.655663 35.706612,89.489723 31.124617,88.916893 
	C29.411280,88.702698 27.816490,87.540245 26.088596,86.434143 
	C26.009546,86.058128 25.982103,86.001274 26.195469,85.756134 
	C26.584049,84.944496 26.759264,84.377991 26.934479,83.811485 
	C29.427849,79.007973 31.921219,74.204453 34.752991,69.572083 
	C37.671566,73.993584 49.039280,75.861053 54.887497,72.995300 
	C52.944904,76.195747 51.002312,79.396194 48.681747,82.977631 
	C48.165276,83.552795 48.067188,83.765602 48.009510,83.997032 
	C47.962788,84.208397 47.916061,84.419762 47.557846,84.983795 
	C47.127335,85.495186 47.036121,85.668549 46.972721,85.856544 
	C46.910507,86.098564 46.848297,86.340584 46.478905,86.976700 
	C46.080612,87.513969 46.008739,87.666237 45.956116,87.827591 
	C45.956116,87.827591 45.997677,87.953033 45.765469,88.182434 
	C45.349850,88.912697 45.166439,89.413551 44.983025,89.914413 
	C44.983028,89.914413 45.012241,89.968903 44.982185,89.976089 
z"/>
<path fill="#8D5BA9" opacity="1.000000" stroke="none" 
	d="
M76.326675,73.026123 
	C80.197060,75.668602 83.788368,75.446060 88.135193,74.161606 
	C94.373184,72.318329 100.935020,70.089180 107.765968,73.826660 
	C102.561714,77.959015 97.069321,81.831871 91.066528,85.583374 
	C87.807816,81.035492 84.641922,84.498505 81.938362,85.294662 
	C73.792404,87.693504 73.844566,87.870644 68.876633,81.959572 
	C71.266502,79.033302 73.656372,76.107025 76.326675,73.026123 
z"/>
<path fill="#1476EC" opacity="1.000000" stroke="none" 
	d="
M251.425964,199.513687 
	C250.204391,199.538940 248.787643,199.200256 247.350983,199.036240 
	C245.053696,198.773972 242.713120,198.295944 240.444489,198.501419 
	C235.743683,198.927200 231.006409,199.442535 226.431458,200.536880 
	C224.452835,201.010162 222.839157,203.009094 221.020981,204.683212 
	C216.469666,202.151550 211.957092,199.251663 207.313065,195.719452 
	C211.080246,193.727524 214.920334,191.466141 218.890457,191.208542 
	C225.750031,190.763489 232.690323,191.562515 239.596741,191.839600 
	C240.278915,192.162613 240.961090,192.485611 241.958389,193.314453 
	C242.972321,194.221039 243.671143,194.621826 244.369949,195.022598 
	C246.653931,196.424438 248.937912,197.826279 251.425964,199.513687 
z"/>
<path fill="#2964E1" opacity="1.000000" stroke="none" 
	d="
M213.870239,174.632080 
	C209.444550,174.431976 204.831863,173.563110 200.223358,173.584808 
	C195.575089,173.606674 190.879684,174.260864 186.317810,175.191437 
	C185.029297,175.454285 184.136856,177.658661 183.069168,179.362518 
	C179.922302,177.566727 176.769043,175.380981 173.276184,172.673416 
	C171.414124,167.966476 173.069305,165.510406 177.318680,165.511887 
	C184.877274,165.514526 192.719955,162.302322 199.940979,167.281525 
	C200.798691,167.872986 202.178268,167.707611 203.315948,167.893066 
	C206.772324,170.046677 210.228699,172.200302 213.870239,174.632080 
z"/>
<path fill="#6958C1" opacity="1.000000" stroke="none" 
	d="
M116.614677,127.286453 
	C124.332367,129.640793 131.466324,130.265945 138.842255,125.897972 
	C142.806595,123.550323 147.756805,122.867462 152.542297,121.245247 
	C153.837006,123.133537 154.851593,125.209999 155.493912,127.679527 
	C153.687592,128.463867 152.234894,128.797668 150.822571,129.255905 
	C142.685623,131.896057 134.646591,134.902634 126.386543,137.068665 
	C122.801437,138.008789 118.890442,137.457443 117.682198,142.134521 
	C117.242256,137.295624 116.802322,132.456711 116.614677,127.286453 
z"/>
<path fill="#5E57C5" opacity="1.000000" stroke="none" 
	d="
M117.739616,142.483246 
	C118.890442,137.457443 122.801437,138.008789 126.386543,137.068665 
	C134.646591,134.902634 142.685623,131.896057 150.822571,129.255905 
	C152.234894,128.797668 153.687592,128.463867 155.495789,128.040024 
	C156.216705,130.398865 156.563461,132.790253 156.428070,135.592407 
	C149.183807,138.005707 142.218628,139.514557 135.730667,142.183517 
	C131.367935,143.978210 127.680298,147.414032 123.690628,150.115616 
	C121.726097,147.687744 119.761566,145.259857 117.739616,142.483246 
z"/>
<path fill="#1A6FE8" opacity="1.000000" stroke="none" 
	d="
M239.371628,191.559586 
	C232.690323,191.562515 225.750031,190.763489 218.890457,191.208542 
	C214.920334,191.466141 211.080246,193.727524 207.123871,195.435730 
	C203.473236,193.480438 199.880341,191.176544 196.087677,188.620865 
	C198.080933,182.780319 202.976318,183.524261 207.515549,183.380630 
	C213.188095,183.201157 218.859055,182.971771 224.938721,182.645416 
	C225.346725,182.526932 225.365982,182.540390 225.375092,182.682693 
	C225.384201,182.824997 225.629547,183.086960 225.629547,183.086960 
	C225.629547,183.086960 225.998978,183.062302 225.998978,183.062302 
	C230.381485,185.801392 234.764008,188.540482 239.371628,191.559586 
z"/>
<path fill="#1275EE" opacity="1.000000" stroke="none" 
	d="
M150.981445,205.008087 
	C153.269669,203.030380 155.476501,200.947235 157.866959,199.101974 
	C160.771667,196.859711 163.831177,194.817993 167.321655,192.303680 
	C168.090714,191.875961 168.361832,191.834091 168.632965,191.792206 
	C173.293045,194.695755 177.953140,197.599289 182.807343,200.780655 
	C181.385468,202.055359 179.888123,203.432159 178.132065,203.980591 
	C171.925873,205.918839 165.631119,207.573563 159.194092,209.658905 
	C156.520508,208.833862 154.022766,207.685715 151.257202,206.055450 
	C150.986725,205.384918 150.984100,205.196503 150.981445,205.008087 
z"/>
<path fill="#8259B0" opacity="1.000000" stroke="none" 
	d="
M68.597672,82.139557 
	C73.844566,87.870644 73.792404,87.693504 81.938362,85.294662 
	C84.641922,84.498505 87.807816,81.035492 90.760254,85.721558 
	C89.020561,88.262291 87.076744,90.543495 84.451172,92.982452 
	C81.753105,93.701225 79.745110,94.294540 77.718903,94.817253 
	C71.447121,96.435196 65.168396,98.026276 58.892372,99.627792 
	C62.034485,93.858376 65.176598,88.088951 68.597672,82.139557 
z"/>
<path fill="#2F61DD" opacity="1.000000" stroke="none" 
	d="
M203.104340,167.619995 
	C202.178268,167.707611 200.798691,167.872986 199.940979,167.281525 
	C192.719955,162.302322 184.877274,165.514526 177.318680,165.511887 
	C173.069305,165.510406 171.414124,167.966476 172.970795,172.522644 
	C169.142609,170.415924 165.280258,167.938171 161.237091,164.808319 
	C163.470154,158.373566 169.060471,157.378571 173.957047,157.266922 
	C179.774292,157.134277 185.635208,158.916672 191.477203,159.869202 
	C195.282379,162.361786 199.087555,164.854355 203.104340,167.619995 
z"/>
<path fill="#6E57BB" opacity="1.000000" stroke="none" 
	d="
M53.965797,119.987411 
	C54.194187,117.898911 54.422581,115.810410 55.149105,113.247040 
	C63.198959,109.872948 70.750671,106.973717 78.302391,104.074486 
	C76.898247,109.140762 75.494102,114.207047 73.508766,119.634476 
	C69.473259,120.623177 65.585419,120.453911 62.656631,122.047379 
	C56.900764,125.178978 57.121361,125.584435 53.965797,119.987411 
z"/>
<path fill="#5457C8" opacity="1.000000" stroke="none" 
	d="
M123.892639,150.408844 
	C127.680298,147.414032 131.367935,143.978210 135.730667,142.183517 
	C142.218628,139.514557 149.183807,138.005707 156.344025,136.003448 
	C157.837967,137.087631 158.933746,138.171539 159.761215,139.567993 
	C156.895050,140.563385 154.229736,141.064224 151.723053,141.993103 
	C150.053253,142.611877 148.693344,144.028030 147.049866,144.763672 
	C141.043533,147.452118 140.740021,148.039597 143.004807,154.036896 
	C136.192383,155.811768 129.844437,154.952774 123.892639,150.408844 
z"/>
<path fill="#F76D19" opacity="1.000000" stroke="none" 
	d="
M54.996326,47.016762 
	C59.255650,50.425507 63.514969,53.834255 67.882828,57.774399 
	C67.991356,58.305794 67.933083,58.800167 67.933083,58.800167 
	C67.933083,58.800167 67.933212,58.958889 67.688248,59.060318 
	C67.235146,59.324699 67.071037,59.523922 66.950958,59.759418 
	C66.950958,59.759418 66.942169,59.961773 66.682121,60.056847 
	C66.222206,60.308701 66.064217,60.500053 65.948090,60.725986 
	C65.948090,60.725986 65.931236,60.940102 65.669571,61.046856 
	C65.213715,61.310074 65.060135,61.499481 64.947182,61.721836 
	C64.947182,61.721836 64.929375,61.937565 64.669662,62.043049 
	C64.219040,62.302063 64.068573,62.488270 63.958534,62.707153 
	C63.120255,63.686264 62.281971,64.665375 60.804535,65.636841 
	C58.253456,65.146278 56.328159,64.210350 54.432148,64.266319 
	C48.983112,64.427177 45.864979,61.648190 43.980560,56.927502 
	C44.007057,56.571373 44.170284,56.296410 44.905777,55.893105 
	C45.595009,55.479675 45.802155,55.236149 45.962749,54.953018 
	C45.962749,54.953018 46.000576,54.997707 46.175232,54.822594 
	C46.542435,54.368515 46.734978,54.089558 46.927521,53.810596 
	C46.927521,53.810596 46.958130,53.942131 47.108650,53.757614 
	C47.470722,53.245857 47.682270,52.918617 47.893822,52.591381 
	C48.799820,51.499084 49.705818,50.406784 51.050804,49.065804 
	C51.697361,48.651886 51.863041,48.451942 51.986839,48.217285 
	C51.986839,48.217285 52.122757,47.947239 52.561520,47.799393 
	C53.324390,47.370941 53.648502,47.090343 53.972614,46.809746 
	C53.972614,46.809746 53.909470,46.893253 54.158913,46.920261 
	C54.604343,46.970432 54.800335,46.993595 54.996326,47.016762 
z"/>
<path fill="#0A82F3" opacity="1.000000" stroke="none" 
	d="
M85.716728,206.646423 
	C80.407394,197.143509 71.165886,198.291779 62.282448,198.711334 
	C57.845783,198.920883 53.429981,199.572128 48.557194,200.025787 
	C53.144142,192.134689 60.837486,188.502991 69.727623,190.146225 
	C75.976440,191.301224 84.557175,195.912094 85.716728,206.646423 
z"/>
<path fill="#ED6622" opacity="1.000000" stroke="none" 
	d="
M43.676826,57.073898 
	C45.864979,61.648190 48.983112,64.427177 54.432148,64.266319 
	C56.328159,64.210350 58.253456,65.146278 60.510445,65.772728 
	C59.618164,67.486938 58.380817,69.057602 56.744843,70.912827 
	C56.201145,71.342133 56.072262,71.500084 55.959564,71.671242 
	C55.959564,71.671242 55.924339,71.929703 55.669617,72.086731 
	C55.251923,72.418526 55.113232,72.610802 54.998821,72.820595 
	C54.998821,72.820595 55.028473,72.962036 54.957985,72.978668 
	C49.039280,75.861053 37.671566,73.993584 35.035980,69.388268 
	C34.980572,69.033310 34.972263,68.978271 35.229332,68.919952 
	C35.728493,68.262840 35.970581,67.664055 36.212669,67.065262 
	C38.599480,63.783607 40.986286,60.501949 43.676826,57.073898 
z"/>
<path fill="#7959B4" opacity="1.000000" stroke="none" 
	d="
M78.535217,103.844490 
	C70.750671,106.973717 63.198959,109.872948 55.315769,112.895012 
	C56.124882,108.693466 57.265469,104.369072 58.649216,99.836243 
	C65.168396,98.026276 71.447121,96.435196 77.718903,94.817253 
	C79.745110,94.294540 81.753105,93.701225 84.202209,93.168381 
	C82.679337,96.669197 80.723686,100.141846 78.535217,103.844490 
z"/>
<path fill="#6154BA" opacity="1.000000" stroke="none" 
	d="
M53.801361,120.351929 
	C57.121361,125.584435 56.900764,125.178978 62.656631,122.047379 
	C65.585419,120.453911 69.473259,120.623177 73.363144,119.996063 
	C73.695045,123.369301 73.591393,126.742096 73.019302,130.541504 
	C63.860512,128.771912 59.926800,135.850296 54.584621,140.182434 
	C54.344666,138.707031 54.104710,137.231644 53.990719,135.256470 
	C54.195606,134.465103 54.124371,134.208282 53.902973,133.986237 
	C53.814289,129.562973 53.725609,125.139709 53.801361,120.351929 
z"/>
<path fill="#7959B4" opacity="1.000000" stroke="none" 
	d="
M214.874237,101.046326 
	C216.090225,104.356216 217.306229,107.666115 218.131180,111.540588 
	C211.883484,115.529205 202.906647,114.002464 200.531616,122.950737 
	C198.990341,117.238358 197.449066,111.525978 196.330444,105.422958 
	C203.210754,105.600632 209.245270,104.245354 214.874237,101.046326 
z"/>
<path fill="#375ED8" opacity="1.000000" stroke="none" 
	d="
M191.242493,159.602020 
	C185.635208,158.916672 179.774292,157.134277 173.957047,157.266922 
	C169.060471,157.378571 163.470154,158.373566 161.046677,164.528442 
	C158.779785,163.521713 156.522507,162.142761 154.140137,160.103455 
	C156.122162,152.512650 162.609024,151.204681 168.131912,149.275986 
	C170.225449,148.544891 173.333603,150.789124 176.001312,151.605209 
	C177.534470,152.074219 179.111740,152.399078 180.669144,152.788818 
	C184.115356,154.970825 187.561584,157.152847 191.242493,159.602020 
z"/>
<path fill="#6058BF" opacity="1.000000" stroke="none" 
	d="
M239.336349,124.970566 
	C238.766708,121.320923 238.197067,117.671288 237.846497,113.428024 
	C238.373657,112.563148 238.681763,112.291901 239.396393,112.006538 
	C245.561325,110.315636 251.319763,108.638847 257.078186,106.962051 
	C257.968658,110.708481 258.859131,114.454910 259.313416,118.598755 
	C254.987167,119.996864 251.064865,120.889381 247.218033,122.035248 
	C244.537216,122.833794 241.959900,123.979782 239.336349,124.970566 
z"/>
<path fill="#3D61D1" opacity="1.000000" stroke="none" 
	d="
M259.667999,144.011871 
	C258.740936,148.782471 257.813904,153.553055 256.533386,158.235168 
	C254.135071,156.779678 252.209595,154.485214 250.025024,154.204071 
	C239.836929,152.892960 238.582596,153.775406 234.006500,163.221741 
	C233.975266,163.662231 233.963440,163.838470 233.744659,164.082596 
	C232.998535,164.049850 232.459381,163.949219 231.920227,163.848572 
	C233.466599,160.085068 235.012955,156.321548 237.091461,152.122742 
	C238.201172,150.374863 238.484116,148.772247 239.424576,147.816925 
	C240.875641,146.342926 242.688812,144.443573 244.503998,144.259567 
	C249.515533,143.751541 254.607712,144.038986 259.667999,144.011871 
z"/>
<path fill="#735AB6" opacity="1.000000" stroke="none" 
	d="
M236.809006,110.074425 
	C235.007233,105.987244 233.205460,101.900070 231.277969,97.527740 
	C237.414291,94.303169 243.393143,91.161354 249.921921,87.730553 
	C251.288391,90.928619 252.635635,94.081696 253.624542,97.613564 
	C246.684692,100.527130 239.615204,102.397217 236.809006,110.074425 
z"/>
<path fill="#8D5BA9" opacity="1.000000" stroke="none" 
	d="
M183.157562,87.214584 
	C182.976898,83.347466 184.675339,82.528847 187.761414,83.919868 
	C188.213181,84.123497 188.734100,84.256027 189.093506,84.569824 
	C194.290024,89.107056 199.752609,87.543945 205.589447,85.172874 
	C207.210098,86.814911 208.492783,88.600403 209.572937,90.917587 
	C207.095474,95.284531 203.677216,96.419090 199.373108,96.057877 
	C196.448807,95.812462 193.479965,96.098152 190.531036,96.146332 
	C188.122833,93.270012 185.714645,90.393700 183.157562,87.214584 
z"/>
<path fill="#5757C6" opacity="1.000000" stroke="none" 
	d="
M54.570457,140.592224 
	C59.926800,135.850296 63.860512,128.771912 72.903610,130.986420 
	C73.866585,134.380981 74.476837,137.757263 74.720268,141.485428 
	C69.479317,140.474197 65.428223,141.766876 61.994270,145.461929 
	C60.466248,147.106140 58.679562,148.509949 57.010277,150.022888 
	C56.192287,147.015930 55.374294,144.008972 54.570457,140.592224 
z"/>
<path fill="#3F5CD3" opacity="1.000000" stroke="none" 
	d="
M180.452393,152.506470 
	C179.111740,152.399078 177.534470,152.074219 176.001312,151.605209 
	C173.333603,150.789124 170.225449,148.544891 168.131912,149.275986 
	C162.609024,151.204681 156.122162,152.512650 153.971771,159.814529 
	C151.225052,158.432205 148.521622,156.678452 145.903931,154.422302 
	C147.939163,152.178238 149.695618,150.128204 151.879608,148.761215 
	C156.003983,146.179733 159.223267,141.660721 164.932816,142.227371 
	C170.033752,145.559616 175.134705,148.891861 180.452393,152.506470 
z"/>
<path fill="#5056C2" opacity="1.000000" stroke="none" 
	d="
M220.029449,144.005264 
	C218.966507,148.988663 217.903564,153.972046 216.651566,159.841766 
	C210.271851,156.055527 204.815842,152.817474 199.401672,149.058289 
	C204.215134,144.882828 208.668091,140.354309 215.622284,143.712402 
	C216.851776,144.306122 218.548492,143.932297 220.029449,144.005264 
z"/>
<path fill="#6E57BB" opacity="1.000000" stroke="none" 
	d="
M200.471069,123.357193 
	C202.906647,114.002464 211.883484,115.529205 218.105423,111.940437 
	C219.174545,114.858818 219.878372,117.941925 220.136688,121.532867 
	C212.858017,125.239082 204.566605,126.083580 200.581512,133.879272 
	C200.524521,130.507401 200.467529,127.135529 200.471069,123.357193 
z"/>
<path fill="#3857D2" opacity="1.000000" stroke="none" 
	d="
M90.335587,167.559357 
	C83.416412,168.500732 76.403442,169.334488 72.086456,176.540680 
	C70.397728,174.870712 68.746788,172.857178 67.054977,170.148102 
	C71.836174,159.564728 72.498009,158.782776 81.038757,159.914093 
	C81.845627,160.020966 82.686058,159.874466 83.510902,159.845581 
	C85.725739,162.317474 87.940575,164.789368 90.335587,167.559357 
z"/>
<path fill="#4A56CA" opacity="1.000000" stroke="none" 
	d="
M57.011623,150.397934 
	C58.679562,148.509949 60.466248,147.106140 61.994270,145.461929 
	C65.428223,141.766876 69.479317,140.474197 74.735939,141.909058 
	C76.327362,145.082886 77.536301,148.184952 78.422394,151.554596 
	C68.746895,149.677277 63.996784,152.682770 62.001213,162.007950 
	C60.338467,158.262955 58.675716,154.517975 57.011623,150.397934 
z"/>
<path fill="#2E6BE1" opacity="1.000000" stroke="none" 
	d="
M233.951630,164.014709 
	C233.963440,163.838470 233.975266,163.662231 234.376801,163.197556 
	C235.974808,162.411896 237.217178,161.983582 238.385925,161.406235 
	C245.663086,157.811371 252.108932,161.664093 252.341721,169.772491 
	C252.341721,169.772491 252.349060,169.809967 252.100082,170.123138 
	C251.629135,170.890381 251.407166,171.344467 251.185196,171.798553 
	C251.185196,171.798553 251.345978,171.709229 251.099518,172.014877 
	C249.239777,173.548569 247.626495,174.776596 246.013214,176.004623 
	C245.837357,175.963226 245.661514,175.921814 245.226913,175.582489 
	C244.652679,175.164246 244.337173,175.043930 244.021683,174.923630 
	C242.493988,174.074646 240.966309,173.225662 239.143402,171.774261 
	C237.087158,170.296616 235.326126,169.421387 233.565109,168.546143 
	C233.565109,168.546143 233.505951,168.560532 233.597412,168.091400 
	C233.776459,166.419754 233.864044,165.217239 233.951630,164.014709 
z"/>
<path fill="#8259B0" opacity="1.000000" stroke="none" 
	d="
M190.660492,96.479050 
	C193.479965,96.098152 196.448807,95.812462 199.373108,96.057877 
	C203.677216,96.419090 207.095474,95.284531 209.641754,91.245483 
	C211.538147,94.139854 213.163177,97.238014 214.831207,100.691254 
	C209.245270,104.245354 203.210754,105.600632 196.284607,105.041840 
	C194.140732,102.304840 192.465347,99.558311 190.660492,96.479050 
z"/>
<path fill="#6958C1" opacity="1.000000" stroke="none" 
	d="
M200.344910,134.164581 
	C204.566605,126.083580 212.858017,125.239082 220.079987,121.953484 
	C220.686722,123.973114 220.904648,126.079948 220.859924,128.895294 
	C219.006470,131.177490 217.686646,133.397110 215.772522,134.200104 
	C210.654587,136.347137 205.281631,137.886246 200.010010,139.666916 
	C200.042770,137.927917 200.075546,136.188904 200.344910,134.164581 
z"/>
<path fill="#4156CF" opacity="1.000000" stroke="none" 
	d="
M62.054821,162.351257 
	C63.996784,152.682770 68.746895,149.677277 78.480690,151.911774 
	C79.147308,152.173874 79.317444,152.424652 79.293152,153.394669 
	C80.180916,155.341476 81.147781,156.647324 82.114639,157.953156 
	C82.510773,158.396042 82.906898,158.838913 83.406967,159.563690 
	C82.686058,159.874466 81.845627,160.020966 81.038757,159.914093 
	C72.498009,158.782776 71.836174,159.564728 66.973602,169.828094 
	C65.324883,167.700577 63.716656,165.197571 62.054821,162.351257 
z"/>
<path fill="#485FCE" opacity="1.000000" stroke="none" 
	d="
M259.830872,143.634018 
	C254.607712,144.038986 249.515533,143.751541 244.503998,144.259567 
	C242.688812,144.443573 240.875641,146.342926 239.424576,147.816925 
	C238.484116,148.772247 238.201172,150.374863 237.308289,151.843506 
	C237.634933,146.959290 238.276901,141.919006 239.315247,136.564178 
	C241.276718,136.557571 242.880951,137.255600 244.399857,137.103149 
	C249.763962,136.564804 255.098816,135.735153 260.444763,135.015961 
	C260.294403,137.762695 260.144073,140.509445 259.830872,143.634018 
z"/>
<path fill="#5A56BF" opacity="1.000000" stroke="none" 
	d="
M199.869202,139.920807 
	C205.281631,137.886246 210.654587,136.347137 215.772522,134.200104 
	C217.686646,133.397110 219.006470,131.177490 220.794220,129.298706 
	C220.793976,133.758133 220.596802,138.522629 220.214539,143.646194 
	C218.548492,143.932297 216.851776,144.306122 215.622284,143.712402 
	C208.668091,140.354309 204.215134,144.882828 199.199097,148.776306 
	C199.212585,146.068527 199.470490,143.121613 199.869202,139.920807 
z"/>
<path fill="#5759C2" opacity="1.000000" stroke="none" 
	d="
M239.264038,125.413719 
	C241.959900,123.979782 244.537216,122.833794 247.218033,122.035248 
	C251.064865,120.889381 254.987167,119.996864 259.270386,118.992905 
	C259.996887,121.719444 260.330322,124.449242 260.170105,127.594864 
	C252.921921,129.735733 244.997772,126.719429 239.371658,133.019318 
	C239.311691,130.631836 239.251724,128.244354 239.264038,125.413719 
z"/>
<path fill="#6958C1" opacity="1.000000" stroke="none" 
	d="
M236.824844,110.332893 
	C239.615204,102.397217 246.684692,100.527130 253.668854,97.985565 
	C255.063278,100.720589 256.055084,103.462410 257.062531,106.583138 
	C251.319763,108.638847 245.561325,110.315636 239.195587,111.827316 
	C238.098801,111.450653 237.609360,111.239098 237.119904,111.027550 
	C237.026840,110.882156 236.933762,110.736755 236.824844,110.332893 
z"/>
<path fill="#3463D2" opacity="1.000000" stroke="none" 
	d="
M252.597595,169.504333 
	C252.108932,161.664093 245.663086,157.811371 238.385925,161.406235 
	C237.217178,161.983582 235.974808,162.411896 234.396179,162.933319 
	C238.582596,153.775406 239.836929,152.892960 250.025024,154.204071 
	C252.209595,154.485214 254.135071,156.779678 256.323334,158.568634 
	C255.262329,162.405807 254.057892,165.820984 252.597595,169.504333 
z"/>
<path fill="#525ECE" opacity="1.000000" stroke="none" 
	d="
M239.202667,133.366089 
	C244.997772,126.719429 252.921921,129.735733 260.080322,128.008972 
	C260.543304,130.057816 260.602448,132.108368 260.553162,134.587433 
	C255.098816,135.735153 249.763962,136.564804 244.399857,137.103149 
	C242.880951,137.255600 241.276718,136.557571 239.397247,136.134491 
	C239.066467,135.250534 239.050064,134.481689 239.202667,133.366089 
z"/>
<path fill="#4A59D0" opacity="1.000000" stroke="none" 
	d="
M164.727814,141.953064 
	C159.223267,141.660721 156.003983,146.179733 151.879608,148.761215 
	C149.695618,150.128204 147.939163,152.178238 145.689407,154.155426 
	C144.787598,154.333847 144.186096,154.276733 143.294693,154.128265 
	C140.740021,148.039597 141.043533,147.452118 147.049866,144.763672 
	C148.693344,144.028030 150.053253,142.611877 151.723053,141.993103 
	C154.229736,141.064224 156.895050,140.563385 159.865341,139.885452 
	C161.666122,140.486511 163.094482,141.082626 164.727814,141.953064 
z"/>
<path fill="#2E6BE1" opacity="1.000000" stroke="none" 
	d="
M168.391541,191.510040 
	C168.361832,191.834091 168.090714,191.875961 167.411469,191.970734 
	C161.288635,190.679398 155.573914,189.335175 149.415344,187.993195 
	C141.961029,187.663223 134.950562,187.331009 127.472031,186.998169 
	C127.003944,186.546448 127.003944,186.095352 127.003036,185.305893 
	C135.914810,185.339813 144.889862,185.202850 153.715729,186.283936 
	C158.654938,186.888962 163.346802,189.513382 168.391541,191.510040 
z"/>
<path fill="#DB593E" opacity="1.000000" stroke="none" 
	d="
M40.757904,151.577530 
	C33.009178,149.927704 29.932825,142.865189 34.240784,133.762543 
	C35.125107,136.859238 35.927818,139.982468 36.923378,143.042969 
	C37.552757,144.977768 38.469948,146.818939 39.584267,148.844177 
	C39.910484,148.986237 40.073788,149.070999 40.059357,149.202362 
	C40.044922,149.333725 40.095848,149.549896 40.095848,149.549896 
	C40.309772,150.081161 40.523697,150.612427 40.757904,151.577530 
z"/>
<path fill="#955CA0" opacity="1.000000" stroke="none" 
	d="
M168.364410,56.999474 
	C166.718246,56.631847 165.261993,56.539307 164.122910,55.890205 
	C162.127808,54.753292 160.327301,53.274868 158.301697,51.652840 
	C163.155701,53.157269 168.153275,54.948372 173.447006,56.910286 
	C172.061157,57.062046 170.379150,57.042999 168.364410,56.999474 
z"/>
<path fill="#F5770D" opacity="1.000000" stroke="none" 
	d="
M141.862198,32.862850 
	C142.130600,33.006031 142.382172,33.174370 142.780945,33.524879 
	C137.952499,33.716568 132.960022,33.751236 127.507851,33.731632 
	C127.267525,33.441765 127.512772,33.237179 128.430817,32.974339 
	C133.339233,32.877663 137.600723,32.870255 141.862198,32.862850 
z"/>
<path fill="#3463D2" opacity="1.000000" stroke="none" 
	d="
M246.171326,176.287582 
	C247.626495,174.776596 249.239777,173.548569 251.143372,172.095718 
	C249.900864,173.620575 251.957947,179.269211 246.171326,176.287582 
z"/>
<path fill="#F47C0D" opacity="1.000000" stroke="none" 
	d="
M243.995148,64.672585 
	C243.754410,63.190144 243.669540,61.399433 243.770309,59.311493 
	C244.020981,60.797611 244.085999,62.580963 243.995148,64.672585 
z"/>
<path fill="#3463D2" opacity="1.000000" stroke="none" 
	d="
M233.750763,168.805283 
	C235.326126,169.421387 237.087158,170.296616 238.951630,171.507629 
	C237.348862,170.917068 235.642639,169.990738 233.750763,168.805283 
z"/>
<path fill="#3463D2" opacity="1.000000" stroke="none" 
	d="
M233.744659,164.082596 
	C233.864044,165.217239 233.776459,166.419754 233.583038,168.064575 
	C232.772079,168.178375 232.066971,167.849869 231.296707,167.125824 
	C231.279831,166.439072 231.192123,166.190872 230.968430,165.985687 
	C231.117615,165.395767 231.266800,164.805832 231.668121,164.032242 
	C232.459381,163.949219 232.998535,164.049850 233.744659,164.082596 
z"/>
<path fill="#4A56CA" opacity="1.000000" stroke="none" 
	d="
M82.038315,157.614014 
	C81.147781,156.647324 80.180916,155.341476 79.253548,153.624496 
	C80.182693,154.567184 81.072342,155.921036 82.038315,157.614014 
z"/>
<path fill="#0A82F3" opacity="1.000000" stroke="none" 
	d="
M91.212517,214.398392 
	C90.663345,214.321884 89.952606,213.995804 89.106720,213.390503 
	C89.664696,213.457138 90.357826,213.802994 91.212517,214.398392 
z"/>
<path fill="#F5770D" opacity="1.000000" stroke="none" 
	d="
M112.613289,16.998764 
	C111.752197,17.373348 110.509491,17.654772 108.867447,17.918488 
	C109.722633,17.569054 110.977158,17.237326 112.613289,16.998764 
z"/>
<path fill="#E45F33" opacity="1.000000" stroke="none" 
	d="
M37.820656,115.658279 
	C37.636642,115.367386 37.581753,114.777451 37.745659,114.129845 
	C37.959564,114.501190 37.954674,114.930214 37.820656,115.658279 
z"/>
<path fill="#735AB6" opacity="1.000000" stroke="none" 
	d="
M237.082825,111.308441 
	C237.609360,111.239098 238.098801,111.450653 238.789062,111.841431 
	C238.681763,112.291901 238.373657,112.563148 237.809723,113.007172 
	C237.384506,112.649734 237.215134,112.119537 237.082825,111.308441 
z"/>
<path fill="#EB632A" opacity="1.000000" stroke="none" 
	d="
M35.989700,67.250351 
	C35.970581,67.664055 35.728493,68.262840 35.256874,68.917587 
	C35.273808,68.460838 35.520271,67.948135 35.989700,67.250351 
z"/>
<path fill="#0A82F3" opacity="1.000000" stroke="none" 
	d="
M112.391418,223.584229 
	C111.691254,223.619080 110.688133,223.411896 109.394257,222.949432 
	C110.098488,222.910172 111.093483,223.126175 112.391418,223.584229 
z"/>
<path fill="#0B7EF1" opacity="1.000000" stroke="none" 
	d="
M205.377808,215.596146 
	C204.801132,215.489182 204.039444,215.119995 203.120117,214.463394 
	C203.705917,214.561951 204.449356,214.947937 205.377808,215.596146 
z"/>
<path fill="#1A6FE8" opacity="1.000000" stroke="none" 
	d="
M244.222198,194.751465 
	C243.671143,194.621826 242.972321,194.221039 242.128754,193.547150 
	C242.680801,193.676147 243.377625,194.078232 244.222198,194.751465 
z"/>
<path fill="#F47C0D" opacity="1.000000" stroke="none" 
	d="
M240.309006,74.013138 
	C240.394165,73.505539 240.726883,72.877007 241.300232,72.112610 
	C241.212753,72.615234 240.884659,73.253723 240.309006,74.013138 
z"/>
<path fill="#2D59D9" opacity="1.000000" stroke="none" 
	d="
M118.830063,183.375839 
	C118.587662,183.582214 118.064400,183.667587 117.440674,183.531647 
	C117.743210,183.291840 118.146202,183.273331 118.830063,183.375839 
z"/>
<path fill="#0A82F3" opacity="1.000000" stroke="none" 
	d="
M93.286819,215.609268 
	C92.874298,215.610291 92.229271,215.346558 91.347397,214.814270 
	C91.758484,214.811981 92.406403,215.078247 93.286819,215.609268 
z"/>
<path fill="#1476EC" opacity="1.000000" stroke="none" 
	d="
M254.919891,201.768250 
	C254.696030,201.832062 254.371506,201.685303 254.012573,201.376907 
	C254.313629,201.194031 254.593994,201.308167 254.919891,201.768250 
z"/>
<path fill="#F47C0D" opacity="1.000000" stroke="none" 
	d="
M243.548340,55.681419 
	C243.322159,55.520214 243.148087,55.136456 242.945190,54.542336 
	C243.144379,54.707603 243.372406,55.083233 243.548340,55.681419 
z"/>
<path fill="#3463D2" opacity="1.000000" stroke="none" 
	d="
M244.112213,175.133179 
	C244.337173,175.043930 244.652679,175.164246 244.999207,175.435562 
	C245.030243,175.586578 244.574326,175.607758 244.574326,175.607758 
	C244.574326,175.607758 244.202744,175.342712 244.112213,175.133179 
z"/>
<path fill="#DE5B39" opacity="1.000000" stroke="none" 
	d="
M39.073532,108.638992 
	C38.933720,108.398094 38.934956,108.032387 38.947838,107.392365 
	C39.044521,107.583420 39.129551,108.048813 39.073532,108.638992 
z"/>
<path fill="#E45F33" opacity="1.000000" stroke="none" 
	d="
M26.729124,84.036011 
	C26.759264,84.377991 26.584049,84.944496 26.225525,85.746719 
	C26.202734,85.408470 26.363251,84.834511 26.729124,84.036011 
z"/>
<path fill="#E45F33" opacity="1.000000" stroke="none" 
	d="
M45.190643,89.732246 
	C45.166439,89.413551 45.349850,88.912697 45.702682,88.203018 
	C45.714153,88.512825 45.556206,89.031456 45.190643,89.732246 
z"/>
<path fill="#0A82F3" opacity="1.000000" stroke="none" 
	d="
M87.228668,211.600983 
	C87.046097,211.623245 86.739151,211.353607 86.262619,210.826187 
	C86.430130,210.815308 86.767212,211.062195 87.228668,211.600983 
z"/>
<path fill="#E45F33" opacity="1.000000" stroke="none" 
	d="
M47.128738,85.794037 
	C47.036121,85.668549 47.127335,85.495186 47.343506,85.227707 
	C47.531677,85.359512 47.479713,85.563705 47.128738,85.794037 
z"/>
<path fill="#0A82F3" opacity="1.000000" stroke="none" 
	d="
M47.875809,200.216705 
	C47.974640,200.345840 47.888191,200.512909 47.674969,200.765350 
	C47.481129,200.633209 47.528576,200.434509 47.875809,200.216705 
z"/>
<path fill="#1476EC" opacity="1.000000" stroke="none" 
	d="
M253.360474,200.673035 
	C253.181076,200.753738 252.816116,200.569229 252.210114,200.194122 
	C252.371017,200.138275 252.772964,200.273056 253.360474,200.673035 
z"/>
<path fill="#F47C0D" opacity="1.000000" stroke="none" 
	d="
M240.834320,49.757133 
	C240.620285,49.802483 240.420654,49.561806 240.150909,49.081249 
	C240.300842,49.081085 240.556824,49.290997 240.834320,49.757133 
z"/>
<path fill="#DE5B39" opacity="1.000000" stroke="none" 
	d="
M40.174309,149.493500 
	C40.095848,149.549896 40.044922,149.333725 40.019356,149.285217 
	C39.993793,149.236694 40.252766,149.437103 40.174309,149.493500 
z"/>
<path fill="#ED6622" opacity="1.000000" stroke="none" 
	d="
M51.773102,48.256065 
	C51.863041,48.451942 51.697361,48.651886 51.324379,48.921085 
	C51.150105,48.703632 51.283569,48.460232 51.773102,48.256065 
z"/>
<path fill="#F5770D" opacity="1.000000" stroke="none" 
	d="
M83.270660,47.778053 
	C83.244293,47.599323 83.473724,47.423397 83.908752,47.159416 
	C84.045799,47.405540 83.849838,47.642040 83.270660,47.778053 
z"/>
<path fill="#1F62E2" opacity="1.000000" stroke="none" 
	d="
M150.807220,205.138611 
	C150.984100,205.196503 150.986725,205.384918 150.982819,205.855865 
	C150.804001,206.152298 150.631729,206.166183 150.243835,206.036591 
	C150.202515,205.658676 150.404114,205.450684 150.807220,205.138611 
z"/>
<path fill="#F47C0D" opacity="1.000000" stroke="none" 
	d="
M242.446960,52.716858 
	C242.254898,52.745419 242.146515,52.584805 242.023193,52.264503 
	C242.245422,52.150902 242.419540,52.291855 242.446960,52.716858 
z"/>
<path fill="#ED6622" opacity="1.000000" stroke="none" 
	d="
M53.641762,46.881882 
	C53.648502,47.090343 53.324390,47.370941 52.712669,47.801373 
	C52.720341,47.618805 53.015625,47.286411 53.641762,46.881882 
z"/>
<path fill="#F5770D" opacity="1.000000" stroke="none" 
	d="
M74.626328,31.026396 
	C74.613632,31.205332 74.281364,31.442598 73.679161,31.828045 
	C73.708405,31.679058 74.007576,31.381891 74.626328,31.026396 
z"/>
<path fill="#E45F33" opacity="1.000000" stroke="none" 
	d="
M46.100647,87.775818 
	C46.008739,87.666237 46.080612,87.513969 46.244400,87.269104 
	C46.453175,87.373589 46.429211,87.559135 46.100647,87.775818 
z"/>
<path fill="#0A82F3" opacity="1.000000" stroke="none" 
	d="
M101.758087,219.969940 
	C101.982414,220.173950 101.515755,220.219070 101.515755,220.219070 
	C101.515755,220.219070 101.110756,219.989624 101.019920,219.854675 
	C101.130646,219.735123 101.332199,219.750534 101.758087,219.969940 
z"/>
<path fill="#0B7EF1" opacity="1.000000" stroke="none" 
	d="
M174.142914,220.199463 
	C174.309738,220.094650 174.515610,220.225021 174.817505,220.533203 
	C174.633942,220.740128 174.390106,220.648010 174.142914,220.199463 
z"/>
<path fill="#ED6622" opacity="1.000000" stroke="none" 
	d="
M54.983551,46.705078 
	C54.800335,46.993595 54.604343,46.970432 54.117798,46.887852 
	C54.015953,46.532364 54.204666,46.236290 54.653999,45.856121 
	C54.933338,45.979145 54.952053,46.186268 54.983551,46.705078 
z"/>
<path fill="#F5770D" opacity="1.000000" stroke="none" 
	d="
M145.262802,33.868553 
	C145.210983,33.571690 145.421799,33.391090 145.838135,33.135513 
	C146.019882,33.032753 146.012146,33.439213 146.005402,33.642361 
	C145.832993,33.882687 145.667313,33.919865 145.262802,33.868553 
z"/>
<path fill="#ED6622" opacity="1.000000" stroke="none" 
	d="
M67.159424,59.714516 
	C67.071037,59.523922 67.235146,59.324699 67.608887,59.059746 
	C67.774857,59.272671 67.639328,59.509960 67.159424,59.714516 
z"/>
<path fill="#F47C0D" opacity="1.000000" stroke="none" 
	d="
M242.158524,70.838364 
	C242.032486,70.698273 242.116898,70.508377 242.345016,70.220383 
	C242.597778,70.360817 242.557861,70.582916 242.158524,70.838364 
z"/>
<path fill="#F47C0D" opacity="1.000000" stroke="none" 
	d="
M243.068695,68.670593 
	C242.956894,68.671379 243.018082,68.456398 243.043213,68.407211 
	C243.068359,68.358017 243.180496,68.669815 243.068695,68.670593 
z"/>
<path fill="#EB632A" opacity="1.000000" stroke="none" 
	d="
M55.180763,72.752777 
	C55.113232,72.610802 55.251923,72.418526 55.544144,72.122337 
	C55.687763,72.282539 55.584202,72.510559 55.180763,72.752777 
z"/>
<path fill="#3D61D1" opacity="1.000000" stroke="none" 
	d="
M230.874496,166.254913 
	C231.192123,166.190872 231.279831,166.439072 231.174469,166.857300 
	C231.005112,166.830933 230.892838,166.677536 230.874496,166.254913 
z"/>
<path fill="#ED6622" opacity="1.000000" stroke="none" 
	d="
M64.153442,62.666107 
	C64.068573,62.488270 64.219040,62.302063 64.561768,62.051586 
	C64.723747,62.250000 64.602005,62.473473 64.153442,62.666107 
z"/>
<path fill="#ED6622" opacity="1.000000" stroke="none" 
	d="
M65.144485,61.678211 
	C65.060135,61.499481 65.213715,61.310074 65.562469,61.054672 
	C65.723503,61.254765 65.598427,61.481049 65.144485,61.678211 
z"/>
<path fill="#3463D2" opacity="1.000000" stroke="none" 
	d="
M251.514847,171.569946 
	C251.407166,171.344467 251.629135,170.890381 252.093903,170.141190 
	C252.172638,170.344513 252.008575,170.842926 251.514847,171.569946 
z"/>
<path fill="#ED6622" opacity="1.000000" stroke="none" 
	d="
M66.147736,60.681313 
	C66.064217,60.500053 66.222206,60.308701 66.580902,60.053520 
	C66.738754,60.257053 66.607979,60.484230 66.147736,60.681313 
z"/>
<path fill="#E45F33" opacity="1.000000" stroke="none" 
	d="
M48.178711,83.904388 
	C48.067188,83.765602 48.165276,83.552795 48.420624,83.226837 
	C48.610931,83.370094 48.547745,83.608994 48.178711,83.904388 
z"/>
<path fill="#F47C0D" opacity="1.000000" stroke="none" 
	d="
M241.492889,50.737259 
	C241.303619,50.788162 241.176254,50.637814 241.019989,50.325523 
	C241.231735,50.187588 241.419617,50.311729 241.492889,50.737259 
z"/>
<path fill="#2269E6" opacity="1.000000" stroke="none" 
	d="
M225.888062,182.878296 
	C225.998978,183.062302 225.629547,183.086960 225.629547,183.086960 
	C225.629547,183.086960 225.384201,182.824997 225.375977,182.694427 
	C225.367737,182.563873 225.777130,182.694305 225.888062,182.878296 
z"/>
<path fill="#ED6622" opacity="1.000000" stroke="none" 
	d="
M68.156555,58.742680 
	C67.933083,58.800167 67.991356,58.305794 68.042007,58.060181 
	C68.092659,57.814571 68.484245,57.870853 68.679222,57.904472 
	C68.834831,58.270058 68.670105,58.519089 68.156555,58.742680 
z"/>
<path fill="#5757C6" opacity="1.000000" stroke="none" 
	d="
M53.860695,134.245544 
	C54.124371,134.208282 54.195606,134.465103 54.047260,134.881134 
	C53.924698,134.838654 53.871559,134.671753 53.860695,134.245544 
z"/>
<path fill="#ED6622" opacity="1.000000" stroke="none" 
	d="
M69.197296,57.828976 
	C69.085281,57.617462 69.253662,57.403625 69.641113,57.112087 
	C69.889076,57.359291 69.761581,57.623379 69.197296,57.828976 
z"/>
<path fill="#ED6622" opacity="1.000000" stroke="none" 
	d="
M45.712296,55.019463 
	C45.802155,55.236149 45.595009,55.479675 45.139198,55.811962 
	C45.112000,55.655521 45.286922,55.370716 45.712296,55.019463 
z"/>
<path fill="#ED6622" opacity="1.000000" stroke="none" 
	d="
M46.669640,53.904671 
	C46.734978,54.089558 46.542435,54.368515 46.150688,54.806885 
	C46.104908,54.643776 46.258335,54.321259 46.669640,53.904671 
z"/>
<path fill="#ED6622" opacity="1.000000" stroke="none" 
	d="
M47.617294,52.736012 
	C47.682270,52.918617 47.470722,53.245857 47.042755,53.772339 
	C46.997814,53.607937 47.169296,53.244289 47.617294,52.736012 
z"/>
<path fill="#EB632A" opacity="1.000000" stroke="none" 
	d="
M56.128777,71.632744 
	C56.072262,71.500084 56.201145,71.342133 56.459667,71.095787 
	C56.609306,71.252899 56.517601,71.452919 56.128777,71.632744 
z"/>
<path fill="#F88308" opacity="1.000000" stroke="none" 
	d="
M141.516495,32.679939 
	C137.600723,32.870255 133.339233,32.877663 128.638031,32.852776 
	C132.522461,32.712666 136.846634,32.604847 141.516495,32.679939 
z"/>
<path fill="#FA7F08" opacity="1.000000" stroke="none" 
	d="
M117.059647,35.024353 
	C116.053444,34.801266 115.036324,34.549076 114.019203,34.296886 
	C114.002739,33.830849 113.986267,33.364807 113.969803,32.898769 
	C116.187164,32.593983 118.404533,32.289200 120.621902,31.984413 
	C120.714844,32.399185 120.807793,32.813957 120.900734,33.228729 
	C119.787025,33.704388 118.673309,34.180050 117.298492,34.855118 
	C117.037384,35.054527 117.048721,34.995247 117.059647,35.024353 
z"/>
</svg>